
        <svg xmlns="http://www.w3.org/2000/svg" xmlns:xlink="http://www.w3.org/1999/xlink" version="1.1" width="3187.5" 
        height="2765.625" viewBox="0 0 3187.5 2765.625">
			
			<g transform="scale(9.375) translate(10, 10)">
				<defs id="SvgjsDefs5410"></defs><g id="SvgjsG5411" featureKey="rootContainer" transform="matrix(1,0,0,1,0,0)" fill="#8b2731"><path xmlns="http://www.w3.org/2000/svg" fill-rule="evenodd" d="M5,65 L160,0 L315, 65 L160, 10 z M5,195 L160,275 L315,190 L160, 265 z"></path></g><g id="SvgjsG5412" featureKey="symbolFeature-0" transform="matrix(1.147380315186437,0,0,1.147380315186437,-7.3688953943367,80.28838399984313)" fill="#b15366"><g xmlns="http://www.w3.org/2000/svg"><path fill-rule="evenodd" clip-rule="evenodd" d="M45.622,23.06c8.215-5.156,19.509-9.774,25.012-7.465   c20.317,8.639,7.215,32.554,0.731,42.347c5.099,0.693,26.955,8.87,21.279,22.164c-6.041,14.43-37.556,14.872-49.273,3.155   c11.332,6.349,40.115,3.559,34.478-11.929c-1.539-4.021-8.581-7.292-15.45-9.293c8.235-13.102,13.833-28.379,2.155-33.804   c-17.22-8.004-46.426,25.512-35.382,45.56C-9.48,48.649,4.526-21.768,45.622,23.06L45.622,23.06z M29.172,73.796   C-5.267,38.106,21.053,5.533,39.87,28.909C25.825,43.801,21.707,64.137,29.172,73.796L29.172,73.796z"></path><g><path fill-rule="evenodd" clip-rule="evenodd" d="M29.238,73.907c-6.07-13.596,13.838-32.533,21.284-30.671    c3.723,0.971,9.792,5.422,0,23.631c5.098,0.243,9.63,4.208,9.226,7.688c-0.728,5.584-10.359,9.873-16.266,8.74    c11.896,4.451,30.105-4.127,24.925-12.786c-2.59-4.289-7.688-5.503-13.272-5.827c5.179-7.041,12.786-25.654-0.081-30.105    C39.273,29.235,22.198,60.311,29.238,73.907L29.238,73.907z"></path><path fill-rule="evenodd" clip-rule="evenodd" d="M29.238,73.907c-21.85-22.983-9.307-51.065,5.503-38.359    c-1.133,1.376-2.752,4.127-3.642,5.665C16.775,42.345,21.226,65.005,29.238,73.907L29.238,73.907z"></path></g></g></g><g id="SvgjsG5413" featureKey="nameFeature-0" transform="matrix(0.5553087930727397,0,0,0.5553087930727397,119.51132879432764,122.95912575300451)" fill="#8b2731"><path d="M10.08 29.52 l0 5.92 c0 2.32 0.88 3 3.48 3 l1.2 0 l0 1.56 l-13.6 0 l0 -1.56 l0.6 0 c2.2 0 2.8 -0.48 2.8 -2.28 l0 -17.16 c0 -1.84 -0.6 -2.32 -2.8 -2.32 l-0.88 0 l0 -1.56 c1.56 -0.08 3.72 -0.32 6.48 -0.44 c2.64 -0.12 5.24 -0.2 6.36 -0.2 c7.72 0 11 3.72 11 7.84 c0 4.64 -3.92 7.6 -10.08 7.6 c-1.44 0 -2.88 -0.12 -4.56 -0.4 z M10.08 16.52 l0 11.36 c0.84 0.2 1.72 0.28 2.88 0.28 c3.72 0 5.8 -2.16 5.8 -6.08 c0 -3.68 -2.16 -5.84 -5.84 -5.84 c-0.96 0 -1.88 0.08 -2.84 0.28 z M35.879999999999995 29.439999999999998 l0 6.08 c0 2.04 0.88 2.92 3.16 2.92 l1.2 0 l0 1.56 l-14 0 l0 -1.56 l0.64 0 c2.44 0 3.48 -0.6 3.48 -2.92 l0 -15.8 c0 -1.92 -0.52 -3.04 -3.2 -3.04 l-0.84 0 l0 -1.56 c2 -0.12 3.52 -0.2 5.16 -0.32 c2.24 -0.16 5.12 -0.28 6.56 -0.28 c5.88 0 9.08 0.76 11.08 2.76 c1.32 1.32 1.92 2.84 1.92 4.56 c0 3.04 -2.2 5.44 -5.92 6.44 c2.64 2.2 4.04 5.36 6.88 8.2 c1.64 1.64 2.76 2.12 5.28 2.36 l0 1.56 c-0.88 0.04 -1.28 0.04 -2.48 0.04 c-4.96 0 -7 -0.72 -8.88 -2.6 c-2 -2 -4.32 -6.2 -6.88 -8.4 l-3.16 0 z M35.879999999999995 16.24 l0 11.52 l1.56 0 c4.84 0 7.64 -1.48 7.64 -5.76 c0 -4.24 -3.24 -5.76 -7.12 -5.76 l-2.08 0 z M57.6 16.68 l0 -1.56 l12.72 0 l0 1.56 l-0.68 0 c-2.16 0 -3.04 0.92 -3.04 3 l0 15.84 c0 1.96 0.68 2.92 3.12 2.92 l0.6 0 l0 1.56 l-12.72 0 l0 -1.56 l0.56 0 c2.12 0 2.92 -1 2.92 -2.76 l0 -16 c0 -2.08 -0.72 -3 -2.96 -3 l-0.52 0 z M89.64 30 l0 5.48 c0 1.92 0.6 2.96 3.48 2.96 l0.6 0 l0 1.56 l-13.64 0 l0 -1.56 l1 0 c2.4 0 3.04 -1.08 3.04 -2.88 l0 -5.56 l-8.6 -11.44 c-1.16 -1.52 -1.64 -1.88 -3.64 -1.88 l-0.28 0 l0 -1.56 l13.04 0 l0 1.56 l-0.48 0 c-2.32 0 -2.64 0.96 -1.8 2.04 l6.4 8.44 l4.64 -7.28 c1.04 -1.64 1.36 -3.2 -1.44 -3.2 l-0.48 0 l0 -1.56 l9.44 0 l0 1.56 c-2.32 0.16 -3 0.6 -4.44 2.8 z M119 30.759999999999998 l-8.76 0 l-1.68 4.68 c-0.72 2.04 -0.68 3 3.16 3 l0.52 0 l0 1.56 l-10.6 0 l0 -1.56 l0.6 0 c1.92 0 2.92 -0.88 3.92 -3.68 l6.84 -19.08 l-0.44 -1.16 l5.92 0 l8 20.32 c1.04 2.64 1.92 3.44 4 3.6 l0 1.56 l-13 0 l0 -1.56 l1.4 0 c2.44 0 2.8 -1.08 2 -3.04 z M118.08 28.560000000000002 l-3.68 -9.36 l-3.36 9.36 l7.04 0 z M158.28 40.56 l-9.44 -20.52 c-1.32 -2.88 -1.88 -3.36 -4.16 -3.36 l-0.28 0 l0 -1.56 l13.88 0 l0 1.56 l-0.68 0 c-3.36 0 -3.88 1.12 -2.76 3.48 l6.28 13.36 l6.12 -14.56 c0.56 -1.36 -0.36 -2.28 -2.64 -2.28 l-0.8 0 l0 -1.56 l10.16 0 l0 1.56 l-0.28 0 c-2.36 0 -3.24 1.08 -4.56 4.24 l-8.32 19.64 l-2.52 0 z M175.11999999999998 16.68 l0 -1.56 l12.72 0 l0 1.56 l-0.68 0 c-2.16 0 -3.04 0.92 -3.04 3 l0 15.84 c0 1.96 0.68 2.92 3.12 2.92 l0.6 0 l0 1.56 l-12.72 0 l0 -1.56 l0.56 0 c2.12 0 2.92 -1 2.92 -2.76 l0 -16 c0 -2.08 -0.72 -3 -2.96 -3 l-0.52 0 z M192.11999999999998 39.92 l-1 -7.28 l1.56 0 c1.32 3.96 3.68 6 6.84 6 c2.64 0 4.64 -1.68 4.64 -3.92 c0 -5.96 -12.84 -5.76 -12.84 -13.68 c0 -3.84 3.36 -6.52 8.12 -6.52 c3.08 0 5.48 1.04 6.08 1.04 c0.28 0 0.52 -0.08 0.88 -0.44 l0.84 0 l0.76 6.48 l-1.6 0 c-0.88 -3.24 -3.44 -5.36 -6.52 -5.36 c-2.24 0 -3.92 1.2 -3.92 2.76 c0 3.68 6.64 4.36 11.12 8.84 c1.64 1.64 2.28 3.36 2.28 5.28 c0 4.16 -3.76 7.44 -8.52 7.44 c-3.2 0 -6.12 -1.28 -6.84 -1.28 c-0.36 0 -0.64 0.2 -0.84 0.64 l-1.04 0 z M231 38.44 l0.56 0 c2.12 0 3 -0.92 3 -3.08 l0 -7.12 l-13.2 0 l0 7.2 c0 2.12 0.84 3 3.08 3 l0.6 0 l0 1.56 l-12.84 0 l0 -1.56 l0.68 0 c2.04 0 2.96 -0.92 2.96 -2.92 l0 -15.92 c0 -2 -0.88 -2.92 -3 -2.92 l-0.64 0 l0 -1.56 l12.84 0 l0 1.56 l-0.56 0 c-2.08 0 -3.12 0.68 -3.12 2.92 l0 6.28 l13.2 0 l0 -6.16 c0 -2.24 -0.88 -3.04 -3.2 -3.04 l-0.36 0 l0 -1.56 l12.8 0 l0 1.56 l-0.72 0 c-2.04 0 -3 0.76 -3 2.92 l0 15.84 c0 2.08 0.76 3 3.08 3 l0.64 0 l0 1.56 l-12.8 0 l0 -1.56 z M264.91999999999996 16.68 l0 -1.56 l10.36 0 l0 1.56 l-0.28 0 c-3.2 0 -3.68 1.4 -3.68 3.32 l0 9.96 c0 8.92 -6.48 10.6 -11.24 10.6 c-7.2 0 -11.76 -3.12 -11.76 -9.24 l0 -11.92 c0 -2 -0.56 -2.72 -2.8 -2.72 l-0.68 0 l0 -1.56 l12.52 0 l0 1.56 l-0.68 0 c-1.68 0 -2.84 0.76 -2.84 2.72 l0 11.92 c0 4.88 3.6 6.56 7.24 6.56 c5.24 0 7.84 -2.96 7.84 -7.36 l0 -9.72 c0 -2.84 -0.8 -4.12 -3.28 -4.12 l-0.72 0 z M293.19999999999993 30.759999999999998 l-8.76 0 l-1.68 4.68 c-0.72 2.04 -0.68 3 3.16 3 l0.52 0 l0 1.56 l-10.6 0 l0 -1.56 l0.6 0 c1.92 0 2.92 -0.88 3.92 -3.68 l6.84 -19.08 l-0.44 -1.16 l5.92 0 l8 20.32 c1.04 2.64 1.92 3.44 4 3.6 l0 1.56 l-13 0 l0 -1.56 l1.4 0 c2.44 0 2.8 -1.08 2 -3.04 z M292.28 28.560000000000002 l-3.68 -9.36 l-3.36 9.36 l7.04 0 z M329.96 33.04 l-2.92 6.96 l-21.44 0 l0 -1.56 l0.68 0 c2.56 0 3.32 -0.92 3.32 -2.88 l0 -16 c0 -2.36 -1.36 -2.88 -3.16 -2.88 l-0.76 0 l0 -1.56 l13.56 0 l0 1.56 l-1.16 0 c-2.08 0 -2.96 0.92 -2.96 2.8 l0 16.48 c0 1.48 0.44 1.84 2 1.84 l5.08 0 c2.68 0 3.48 -1.32 6.16 -4.76 l1.6 0 z M334.40000000000003 27.52 l-2 -7.48 c-0.24 -0.92 -0.4 -1.84 -0.4 -2.52 c0 -1.72 1.24 -3 2.88 -3 s2.88 1.28 2.88 3 c0 0.68 -0.16 1.6 -0.4 2.52 l-2 7.48 l-0.96 0 z M343.8 39.92 l-1 -7.28 l1.56 0 c1.32 3.96 3.68 6 6.84 6 c2.64 0 4.64 -1.68 4.64 -3.92 c0 -5.96 -12.84 -5.76 -12.84 -13.68 c0 -3.84 3.36 -6.52 8.12 -6.52 c3.08 0 5.48 1.04 6.08 1.04 c0.28 0 0.52 -0.08 0.88 -0.44 l0.84 0 l0.76 6.48 l-1.6 0 c-0.88 -3.24 -3.44 -5.36 -6.52 -5.36 c-2.24 0 -3.92 1.2 -3.92 2.76 c0 3.68 6.64 4.36 11.12 8.84 c1.64 1.64 2.28 3.36 2.28 5.28 c0 4.16 -3.76 7.44 -8.52 7.44 c-3.2 0 -6.12 -1.28 -6.84 -1.28 c-0.36 0 -0.64 0.2 -0.84 0.64 l-1.04 0 z"></path></g>
			</g>
		</svg>
	